#N canvas 954 1112 948 963 12;
#X obj 16 36 karplusstrong~;
#X obj 16 61 dac~;
#X msg 16 11 440 5 0;
#X msg 90 11 660 5 100;
#X connect 0 0 1 0;
#X connect 0 0 1 1;
#X connect 2 0 0 0;
#X connect 3 0 0 0;
